<mxfile host="app.diagrams.net" modified="2023-04-01T01:24:50.417Z" agent="Mozilla/5.0 (Windows NT 10.0; Win64; x64) AppleWebKit/537.36 (KHTML, like Gecko) Chrome/111.0.0.0 Safari/537.36 Edg/111.0.1661.54" etag="WqRmY0_zjN-3_A1yTKHH" version="21.1.2" type="github">
  <diagram id="MBzh1KAzN3Y1buwNM6IH" name="Page-1">
    <mxGraphModel dx="1620" dy="927" grid="1" gridSize="10" guides="1" tooltips="1" connect="1" arrows="1" fold="1" page="1" pageScale="1" pageWidth="1100" pageHeight="850" background="none" math="0" shadow="1">
      <root>
        <mxCell id="0" />
        <mxCell id="1" parent="0" />
        <mxCell id="3CN4i4FmLzeHz4VsIxxE-7" style="edgeStyle=orthogonalEdgeStyle;rounded=0;orthogonalLoop=1;jettySize=auto;html=1;exitX=0.98;exitY=0.11;exitDx=0;exitDy=0;exitPerimeter=0;entryX=0;entryY=0.364;entryDx=0;entryDy=0;entryPerimeter=0;labelBackgroundColor=none;strokeColor=#736CA8;fontColor=default;curved=1;" parent="1" target="2ed32ef02a7f4228-11" edge="1">
          <mxGeometry relative="1" as="geometry">
            <mxPoint x="189.4000000000001" y="183.0999999999999" as="sourcePoint" />
          </mxGeometry>
        </mxCell>
        <mxCell id="3CN4i4FmLzeHz4VsIxxE-13" style="edgeStyle=orthogonalEdgeStyle;rounded=0;orthogonalLoop=1;jettySize=auto;html=1;exitX=0.98;exitY=0.11;exitDx=0;exitDy=0;exitPerimeter=0;entryX=0;entryY=0.29;entryDx=0;entryDy=0;entryPerimeter=0;labelBackgroundColor=none;strokeColor=#736CA8;fontColor=default;curved=1;" parent="1" target="2ed32ef02a7f4228-8" edge="1">
          <mxGeometry relative="1" as="geometry">
            <mxPoint x="189.4000000000001" y="183.0999999999999" as="sourcePoint" />
          </mxGeometry>
        </mxCell>
        <mxCell id="3CN4i4FmLzeHz4VsIxxE-20" style="edgeStyle=orthogonalEdgeStyle;rounded=0;orthogonalLoop=1;jettySize=auto;html=1;exitX=0.98;exitY=0.11;exitDx=0;exitDy=0;exitPerimeter=0;entryX=0;entryY=0.58;entryDx=0;entryDy=0;entryPerimeter=0;labelBackgroundColor=none;strokeColor=#736CA8;fontColor=default;curved=1;" parent="1" source="2ed32ef02a7f4228-1" target="3CN4i4FmLzeHz4VsIxxE-6" edge="1">
          <mxGeometry relative="1" as="geometry" />
        </mxCell>
        <mxCell id="2ed32ef02a7f4228-1" value="&lt;div style=&quot;box-sizing:border-box;width:100%;background:#e4e4e4;padding:2px;&quot;&gt;tbl_members&lt;/div&gt;PK&lt;span style=&quot;white-space: pre;&quot;&gt; &lt;/span&gt;member_id&lt;br&gt;&lt;span style=&quot;white-space: pre;&quot;&gt; &lt;/span&gt;first_name&lt;br&gt;&lt;span style=&quot;white-space: pre;&quot;&gt; &lt;/span&gt;middle_name&lt;br&gt;&lt;span style=&quot;white-space: pre;&quot;&gt; &lt;/span&gt;last_name&lt;br&gt;&lt;span style=&quot;white-space: pre;&quot;&gt; &lt;/span&gt;nickname&lt;br&gt;&lt;span style=&quot;white-space: pre;&quot;&gt; &lt;/span&gt;birthday&lt;br&gt;&lt;span style=&quot;white-space: pre;&quot;&gt; &lt;/span&gt;gender&lt;br&gt;&lt;span style=&quot;white-space: pre;&quot;&gt; &lt;/span&gt;religion&lt;br&gt;&lt;span style=&quot;white-space: pre;&quot;&gt; &lt;/span&gt;baptism&lt;br&gt;&lt;span style=&quot;white-space: pre;&quot;&gt; &lt;/span&gt;confirmation&lt;br&gt;FK&lt;span style=&quot;white-space: pre;&quot;&gt; &lt;/span&gt;member_status_id&lt;br&gt;&lt;span style=&quot;white-space: pre;&quot;&gt;FK&lt;span style=&quot;white-space: pre;&quot;&gt; &lt;/span&gt;created_by&lt;br&gt;&lt;span style=&quot;white-space: pre;&quot;&gt; &lt;/span&gt;created_on &lt;/span&gt;" style="verticalAlign=top;align=left;overflow=fill;html=1;rounded=0;shadow=0;comic=0;labelBackgroundColor=none;strokeWidth=1;fontFamily=Verdana;fontSize=12;points=[[0,0,0,0,0],[0,0.11,0,0,0],[0,0.8,0,0,0],[0,0.88,0,0,0],[0,1,0,0,0],[0.25,0,0,0,0],[0.25,1,0,0,0],[0.5,0,0,0,0],[0.5,1,0,0,0],[0.75,0,0,0,0],[0.75,1,0,0,0],[0.98,0.11,0,0,0],[1,0,0,0,0],[1,0.8,0,0,0],[1,0.88,0,0,0],[1,1,0,0,0]];fillColor=#5D7F99;strokeColor=#D0CEE2;fontColor=#1A1A1A;" parent="1" vertex="1">
          <mxGeometry x="40" y="160" width="180" height="210" as="geometry" />
        </mxCell>
        <mxCell id="3CN4i4FmLzeHz4VsIxxE-18" style="edgeStyle=orthogonalEdgeStyle;rounded=0;orthogonalLoop=1;jettySize=auto;html=1;exitX=0;exitY=0.25;exitDx=0;exitDy=0;entryX=1;entryY=0.71;entryDx=0;entryDy=0;entryPerimeter=0;labelBackgroundColor=none;strokeColor=#736CA8;fontColor=default;curved=1;" parent="1" source="2ed32ef02a7f4228-2" target="2ed32ef02a7f4228-8" edge="1">
          <mxGeometry relative="1" as="geometry" />
        </mxCell>
        <mxCell id="2ed32ef02a7f4228-2" value="&lt;div style=&quot;box-sizing: border-box ; width: 100% ; background: #e4e4e4 ; padding: 2px&quot;&gt;tbl_occupation&lt;/div&gt;&lt;table style=&quot;width: 100% ; font-size: 1em&quot; cellpadding=&quot;2&quot; cellspacing=&quot;0&quot;&gt;&lt;tbody&gt;&lt;tr&gt;&lt;td&gt;PK&lt;span style=&quot;white-space: pre;&quot;&gt; &lt;/span&gt;occupation_id&lt;br&gt;&lt;span style=&quot;white-space: pre;&quot;&gt; &lt;/span&gt;occupation_name&lt;br&gt;&lt;span style=&quot;white-space: pre;&quot;&gt; &lt;/span&gt;specialty&lt;br&gt;&lt;span style=&quot;white-space: pre;&quot;&gt; &lt;/span&gt;company&lt;br&gt;FK&lt;span style=&quot;white-space: pre;&quot;&gt; &lt;/span&gt;address_id&lt;br&gt;FK&lt;span style=&quot;white-space: pre;&quot;&gt; &lt;/span&gt;created_by&lt;br&gt;&lt;span style=&quot;white-space: pre;&quot;&gt; &lt;/span&gt;created_on&lt;br&gt;&lt;/td&gt;&lt;td&gt;&lt;/td&gt;&lt;/tr&gt;&lt;/tbody&gt;&lt;/table&gt;" style="verticalAlign=top;align=left;overflow=fill;html=1;rounded=0;shadow=0;comic=0;labelBackgroundColor=none;strokeWidth=1;fontFamily=Verdana;fontSize=12;fillColor=#5D7F99;strokeColor=#D0CEE2;fontColor=#1A1A1A;" parent="1" vertex="1">
          <mxGeometry x="520" y="356" width="180" height="130" as="geometry" />
        </mxCell>
        <mxCell id="3CN4i4FmLzeHz4VsIxxE-8" style="edgeStyle=orthogonalEdgeStyle;rounded=0;orthogonalLoop=1;jettySize=auto;html=1;exitX=0;exitY=0.61;exitDx=0;exitDy=0;exitPerimeter=0;entryX=0;entryY=0.8;entryDx=0;entryDy=0;entryPerimeter=0;labelBackgroundColor=none;strokeColor=#736CA8;fontColor=default;curved=1;" parent="1" source="2ed32ef02a7f4228-5" target="2ed32ef02a7f4228-1" edge="1">
          <mxGeometry relative="1" as="geometry" />
        </mxCell>
        <mxCell id="2ed32ef02a7f4228-5" value="&lt;div style=&quot;box-sizing:border-box;width:100%;background:#e4e4e4;padding:2px;&quot;&gt;tbl_memberStatus&lt;/div&gt;&lt;table style=&quot;width:100%;font-size:1em;&quot; cellpadding=&quot;2&quot; cellspacing=&quot;0&quot;&gt;&lt;tbody&gt;&lt;tr&gt;&lt;td&gt;PK&lt;span style=&quot;white-space: pre;&quot;&gt; &lt;/span&gt;member_status_id&lt;br&gt;&lt;span style=&quot;white-space: pre;&quot;&gt; &lt;/span&gt;member_status&lt;br&gt;FK&lt;span style=&quot;white-space: pre;&quot;&gt; &lt;/span&gt;created_by&lt;br&gt;&lt;span style=&quot;white-space: pre;&quot;&gt; &lt;/span&gt;created_on&lt;br&gt;&lt;/td&gt;&lt;td&gt;&lt;/td&gt;&lt;/tr&gt;&lt;/tbody&gt;&lt;/table&gt;" style="verticalAlign=top;align=left;overflow=fill;html=1;rounded=0;shadow=0;comic=0;labelBackgroundColor=none;strokeWidth=1;fontFamily=Verdana;fontSize=12;points=[[0,0,0,0,0],[0,0.28,0,0,0],[0,0.61,0,0,0],[0,0.75,0,0,0],[0,1,0,0,0],[0.25,0,0,0,0],[0.25,1,0,0,0],[0.5,0,0,0,0],[0.5,1,0,0,0],[0.75,0,0,0,0],[0.75,1,0,0,0],[1,0,0,0,0],[1,0.25,0,0,0],[1,0.61,0,0,0],[1,0.75,0,0,0],[1,1,0,0,0]];fillColor=#5D7F99;strokeColor=#D0CEE2;fontColor=#1A1A1A;" parent="1" vertex="1">
          <mxGeometry x="40" y="690" width="180" height="90" as="geometry" />
        </mxCell>
        <mxCell id="2ed32ef02a7f4228-8" value="&lt;div style=&quot;box-sizing: border-box ; width: 100% ; background: #e4e4e4 ; padding: 2px&quot;&gt;tbl_contactInfo&lt;/div&gt;&lt;table style=&quot;width: 100% ; font-size: 1em&quot; cellpadding=&quot;2&quot; cellspacing=&quot;0&quot;&gt;&lt;tbody&gt;&lt;tr&gt;&lt;td&gt;PK&lt;span style=&quot;white-space: pre;&quot;&gt; &lt;/span&gt;contact_info_id&lt;br&gt;FK&lt;span style=&quot;white-space: pre;&quot;&gt; &lt;/span&gt;member_id&lt;br&gt;FK&lt;span style=&quot;white-space: pre;&quot;&gt; &lt;/span&gt;address_id&lt;br&gt;FK&lt;span style=&quot;white-space: pre;&quot;&gt; &lt;/span&gt;contactNumber_id&lt;br&gt;FK&lt;span style=&quot;white-space: pre;&quot;&gt; &lt;/span&gt;email_id&lt;br&gt;FK&lt;span style=&quot;white-space: pre;&quot;&gt; &lt;/span&gt;occupation_id&lt;br&gt;FK&lt;span style=&quot;white-space: pre;&quot;&gt; &lt;/span&gt;created_by&lt;br&gt;&lt;span style=&quot;white-space: pre;&quot;&gt; &lt;/span&gt;created_on&lt;br&gt;&lt;/td&gt;&lt;td&gt;&lt;/td&gt;&lt;/tr&gt;&lt;/tbody&gt;&lt;/table&gt;" style="verticalAlign=top;align=left;overflow=fill;html=1;rounded=0;shadow=0;comic=0;labelBackgroundColor=none;strokeWidth=1;fontFamily=Verdana;fontSize=12;points=[[0,0,0,0,0],[0,0.2,0,0,0],[0,0.29,0,0,0],[0,0.4,0,0,0],[0,0.5,0,0,0],[0,0.59,0,0,0],[0,0.71,0,0,0],[0,0.82,0,0,0],[0,1,0,0,0],[0.25,0,0,0,0],[0.25,1,0,0,0],[0.5,0,0,0,0],[0.5,1,0,0,0],[0.75,0,0,0,0],[0.75,1,0,0,0],[1,0,0,0,0],[1,0.2,0,0,0],[1,0.29,0,0,0],[1,0.4,0,0,0],[1,0.5,0,0,0],[1,0.59,0,0,0],[1,0.71,0,0,0],[1,0.82,0,0,0],[1,1,0,0,0]];fillColor=#5D7F99;strokeColor=#D0CEE2;fontColor=#1A1A1A;" parent="1" vertex="1">
          <mxGeometry x="273" y="200" width="180" height="140" as="geometry" />
        </mxCell>
        <mxCell id="2ed32ef02a7f4228-11" value="&lt;div style=&quot;box-sizing:border-box;width:100%;background:#e4e4e4;padding:2px;&quot;&gt;tbl_attendances&lt;/div&gt;&lt;table style=&quot;width:100%;font-size:1em;&quot; cellpadding=&quot;2&quot; cellspacing=&quot;0&quot;&gt;&lt;tbody&gt;&lt;tr&gt;&lt;td&gt;PK&lt;span style=&quot;white-space: pre;&quot;&gt; &lt;/span&gt;attendance_id&lt;br&gt;FK&lt;span style=&quot;white-space: pre;&quot;&gt; &lt;/span&gt;member_id&lt;br&gt;FK&lt;span style=&quot;white-space: pre;&quot;&gt; &lt;/span&gt;event_id&lt;br&gt;&lt;span style=&quot;white-space: pre;&quot;&gt; &lt;/span&gt;event_date&lt;br&gt;FK&lt;span style=&quot;white-space: pre;&quot;&gt; &lt;/span&gt;created_by&lt;br&gt;&lt;span style=&quot;white-space: pre;&quot;&gt; &lt;/span&gt;created_on&lt;br&gt;&lt;/td&gt;&lt;td&gt;&lt;/td&gt;&lt;/tr&gt;&lt;/tbody&gt;&lt;/table&gt;" style="verticalAlign=top;align=left;overflow=fill;html=1;rounded=0;shadow=0;comic=0;labelBackgroundColor=none;strokeWidth=1;fontFamily=Verdana;fontSize=12;fillColor=#5D7F99;strokeColor=#D0CEE2;fontColor=#1A1A1A;" parent="1" vertex="1">
          <mxGeometry x="273" y="40" width="180" height="110" as="geometry" />
        </mxCell>
        <mxCell id="3CN4i4FmLzeHz4VsIxxE-11" style="edgeStyle=orthogonalEdgeStyle;rounded=0;orthogonalLoop=1;jettySize=auto;html=1;exitX=0;exitY=0.25;exitDx=0;exitDy=0;labelBackgroundColor=none;strokeColor=#736CA8;fontColor=default;curved=1;" parent="1" source="3CN4i4FmLzeHz4VsIxxE-1" target="2ed32ef02a7f4228-11" edge="1">
          <mxGeometry relative="1" as="geometry" />
        </mxCell>
        <mxCell id="3CN4i4FmLzeHz4VsIxxE-1" value="&lt;div style=&quot;box-sizing:border-box;width:100%;background:#e4e4e4;padding:2px;&quot;&gt;tbl_events&lt;/div&gt;&lt;table style=&quot;width:100%;font-size:1em;&quot; cellpadding=&quot;2&quot; cellspacing=&quot;0&quot;&gt;&lt;tbody&gt;&lt;tr&gt;&lt;td&gt;PK&lt;span style=&quot;white-space: pre;&quot;&gt; &lt;/span&gt;event_id&lt;br&gt;&lt;span style=&quot;white-space: pre;&quot;&gt; &lt;/span&gt;event_title&lt;br&gt;&lt;span style=&quot;white-space: pre;&quot;&gt; &lt;/span&gt;event_sub_title&lt;br&gt;FK&lt;span style=&quot;white-space: pre;&quot;&gt; &lt;/span&gt;event_type_id&lt;br&gt;FK&lt;span style=&quot;white-space: pre;&quot;&gt; &lt;/span&gt;created_by&lt;br&gt;&lt;span style=&quot;white-space: pre;&quot;&gt; &lt;/span&gt;created_on&lt;br&gt;&lt;/td&gt;&lt;td&gt;&lt;/td&gt;&lt;/tr&gt;&lt;/tbody&gt;&lt;/table&gt;" style="verticalAlign=top;align=left;overflow=fill;html=1;rounded=0;shadow=0;comic=0;labelBackgroundColor=none;strokeWidth=1;fontFamily=Verdana;fontSize=12;fillColor=#5D7F99;strokeColor=#D0CEE2;fontColor=#1A1A1A;" parent="1" vertex="1">
          <mxGeometry x="520" y="40" width="180" height="110" as="geometry" />
        </mxCell>
        <mxCell id="3CN4i4FmLzeHz4VsIxxE-12" style="edgeStyle=orthogonalEdgeStyle;rounded=0;orthogonalLoop=1;jettySize=auto;html=1;exitX=0;exitY=0.25;exitDx=0;exitDy=0;labelBackgroundColor=none;strokeColor=#736CA8;fontColor=default;curved=1;" parent="1" source="3CN4i4FmLzeHz4VsIxxE-2" target="3CN4i4FmLzeHz4VsIxxE-1" edge="1">
          <mxGeometry relative="1" as="geometry" />
        </mxCell>
        <mxCell id="3CN4i4FmLzeHz4VsIxxE-2" value="&lt;div style=&quot;box-sizing:border-box;width:100%;background:#e4e4e4;padding:2px;&quot;&gt;tbl_eventTypes&lt;/div&gt;&lt;table style=&quot;width:100%;font-size:1em;&quot; cellpadding=&quot;2&quot; cellspacing=&quot;0&quot;&gt;&lt;tbody&gt;&lt;tr&gt;&lt;td&gt;PK&lt;span style=&quot;white-space: pre;&quot;&gt; &lt;/span&gt;event_type_id&lt;br&gt;&lt;span style=&quot;white-space: pre;&quot;&gt; &lt;/span&gt;event_type_name&lt;br&gt;FK&lt;span style=&quot;white-space: pre;&quot;&gt; &lt;/span&gt;created_by&lt;br&gt;&lt;span style=&quot;white-space: pre;&quot;&gt; &lt;/span&gt;created_on&lt;br&gt;&lt;/td&gt;&lt;td&gt;&lt;/td&gt;&lt;/tr&gt;&lt;/tbody&gt;&lt;/table&gt;" style="verticalAlign=top;align=left;overflow=fill;html=1;rounded=0;shadow=0;comic=0;labelBackgroundColor=none;strokeWidth=1;fontFamily=Verdana;fontSize=12;fillColor=#5D7F99;strokeColor=#D0CEE2;fontColor=#1A1A1A;" parent="1" vertex="1">
          <mxGeometry x="760" y="40" width="180" height="110" as="geometry" />
        </mxCell>
        <mxCell id="3CN4i4FmLzeHz4VsIxxE-14" style="edgeStyle=orthogonalEdgeStyle;rounded=0;orthogonalLoop=1;jettySize=auto;html=1;exitX=0;exitY=0.21;exitDx=0;exitDy=0;exitPerimeter=0;entryX=1;entryY=0.4;entryDx=0;entryDy=0;entryPerimeter=0;labelBackgroundColor=none;strokeColor=#736CA8;fontColor=default;curved=1;" parent="1" source="3CN4i4FmLzeHz4VsIxxE-3" target="2ed32ef02a7f4228-8" edge="1">
          <mxGeometry relative="1" as="geometry" />
        </mxCell>
        <mxCell id="3CN4i4FmLzeHz4VsIxxE-17" style="edgeStyle=orthogonalEdgeStyle;rounded=0;orthogonalLoop=1;jettySize=auto;html=1;exitX=1;exitY=0.21;exitDx=0;exitDy=0;exitPerimeter=0;entryX=1;entryY=0.63;entryDx=0;entryDy=0;entryPerimeter=0;labelBackgroundColor=none;strokeColor=#736CA8;fontColor=default;curved=1;" parent="1" source="3CN4i4FmLzeHz4VsIxxE-3" target="2ed32ef02a7f4228-2" edge="1">
          <mxGeometry relative="1" as="geometry" />
        </mxCell>
        <mxCell id="3CN4i4FmLzeHz4VsIxxE-3" value="&lt;div style=&quot;box-sizing: border-box ; width: 100% ; background: #e4e4e4 ; padding: 2px&quot;&gt;tbl_addresses&lt;/div&gt;&lt;table style=&quot;width: 100% ; font-size: 1em&quot; cellpadding=&quot;2&quot; cellspacing=&quot;0&quot;&gt;&lt;tbody&gt;&lt;tr&gt;&lt;td&gt;PK&lt;span style=&quot;white-space: pre;&quot;&gt; &lt;/span&gt;address_id&lt;br&gt;&lt;span style=&quot;white-space: pre;&quot;&gt; &lt;/span&gt;house_no&lt;br&gt;&lt;span style=&quot;white-space: pre;&quot;&gt; &lt;/span&gt;street&lt;br&gt;&lt;span style=&quot;white-space: pre;&quot;&gt; &lt;/span&gt;subdivision&lt;br&gt;&lt;span style=&quot;white-space: pre;&quot;&gt; &lt;/span&gt;city&lt;br&gt;FK&lt;span style=&quot;white-space: pre;&quot;&gt; &lt;/span&gt;created_by&lt;br&gt;&lt;span style=&quot;white-space: pre;&quot;&gt; &lt;/span&gt;created_on&lt;br&gt;&lt;/td&gt;&lt;td&gt;&lt;/td&gt;&lt;/tr&gt;&lt;/tbody&gt;&lt;/table&gt;" style="verticalAlign=top;align=left;overflow=fill;html=1;rounded=0;shadow=0;comic=0;labelBackgroundColor=none;strokeWidth=1;fontFamily=Verdana;fontSize=12;points=[[0,0,0,0,0],[0,0.21,0,0,0],[0,0.5,0,0,0],[0,0.75,0,0,0],[0,1,0,0,0],[0.25,0,0,0,0],[0.25,1,0,0,0],[0.5,0,0,0,0],[0.5,1,0,0,0],[0.75,0,0,0,0],[0.75,1,0,0,0],[1,0,0,0,0],[1,0.21,0,0,0],[1,0.5,0,0,0],[1,0.75,0,0,0],[1,1,0,0,0]];fillColor=#5D7F99;strokeColor=#D0CEE2;fontColor=#1A1A1A;" parent="1" vertex="1">
          <mxGeometry x="520" y="176" width="180" height="130" as="geometry" />
        </mxCell>
        <mxCell id="3CN4i4FmLzeHz4VsIxxE-16" style="edgeStyle=orthogonalEdgeStyle;rounded=0;orthogonalLoop=1;jettySize=auto;html=1;exitX=0;exitY=0.25;exitDx=0;exitDy=0;entryX=1;entryY=0.59;entryDx=0;entryDy=0;entryPerimeter=0;labelBackgroundColor=none;strokeColor=#736CA8;fontColor=default;curved=1;" parent="1" source="3CN4i4FmLzeHz4VsIxxE-4" target="2ed32ef02a7f4228-8" edge="1">
          <mxGeometry relative="1" as="geometry" />
        </mxCell>
        <mxCell id="3CN4i4FmLzeHz4VsIxxE-4" value="&lt;div style=&quot;box-sizing: border-box ; width: 100% ; background: #e4e4e4 ; padding: 2px&quot;&gt;tbl_emails&lt;/div&gt;&lt;table style=&quot;width: 100% ; font-size: 1em&quot; cellpadding=&quot;2&quot; cellspacing=&quot;0&quot;&gt;&lt;tbody&gt;&lt;tr&gt;&lt;td&gt;PK&lt;span style=&quot;white-space: pre;&quot;&gt; &lt;/span&gt;email_id&lt;br&gt;&lt;span style=&quot;white-space: pre;&quot;&gt; &lt;/span&gt;email&lt;br&gt;FK&lt;span style=&quot;white-space: pre;&quot;&gt; &lt;/span&gt;created_by&lt;br&gt;&lt;span style=&quot;white-space: pre;&quot;&gt; &lt;/span&gt;created_on&lt;br&gt;&lt;/td&gt;&lt;td&gt;&lt;/td&gt;&lt;/tr&gt;&lt;/tbody&gt;&lt;/table&gt;" style="verticalAlign=top;align=left;overflow=fill;html=1;rounded=0;shadow=0;comic=0;labelBackgroundColor=none;strokeWidth=1;fontFamily=Verdana;fontSize=12;fillColor=#5D7F99;strokeColor=#D0CEE2;fontColor=#1A1A1A;" parent="1" vertex="1">
          <mxGeometry x="510" y="656" width="180" height="90" as="geometry" />
        </mxCell>
        <mxCell id="3CN4i4FmLzeHz4VsIxxE-15" style="edgeStyle=orthogonalEdgeStyle;rounded=0;orthogonalLoop=1;jettySize=auto;html=1;exitX=0;exitY=0.32;exitDx=0;exitDy=0;exitPerimeter=0;entryX=1;entryY=0.5;entryDx=0;entryDy=0;entryPerimeter=0;labelBackgroundColor=none;strokeColor=#736CA8;fontColor=default;curved=1;" parent="1" source="3CN4i4FmLzeHz4VsIxxE-5" target="2ed32ef02a7f4228-8" edge="1">
          <mxGeometry relative="1" as="geometry" />
        </mxCell>
        <mxCell id="3CN4i4FmLzeHz4VsIxxE-21" style="edgeStyle=orthogonalEdgeStyle;rounded=0;orthogonalLoop=1;jettySize=auto;html=1;exitX=0;exitY=0.32;exitDx=0;exitDy=0;exitPerimeter=0;entryX=1;entryY=0.45;entryDx=0;entryDy=0;entryPerimeter=0;labelBackgroundColor=none;strokeColor=#736CA8;fontColor=default;curved=1;" parent="1" source="3CN4i4FmLzeHz4VsIxxE-5" target="3CN4i4FmLzeHz4VsIxxE-6" edge="1">
          <mxGeometry relative="1" as="geometry" />
        </mxCell>
        <mxCell id="3CN4i4FmLzeHz4VsIxxE-5" value="&lt;div style=&quot;box-sizing: border-box ; width: 100% ; background: #e4e4e4 ; padding: 2px&quot;&gt;tbl_contactNumbers&lt;/div&gt;&lt;table style=&quot;width: 100% ; font-size: 1em&quot; cellpadding=&quot;2&quot; cellspacing=&quot;0&quot;&gt;&lt;tbody&gt;&lt;tr&gt;&lt;td&gt;PK&lt;span style=&quot;white-space: pre;&quot;&gt; &lt;/span&gt;contactNumber_id&lt;br&gt;&lt;span style=&quot;white-space: pre;&quot;&gt; &lt;/span&gt;mobile&lt;br&gt;FK&lt;span style=&quot;white-space: pre;&quot;&gt; &lt;/span&gt;created_by&lt;br&gt;&lt;span style=&quot;white-space: pre;&quot;&gt; &lt;/span&gt;created_on&lt;br&gt;&lt;/td&gt;&lt;td&gt;&lt;/td&gt;&lt;/tr&gt;&lt;/tbody&gt;&lt;/table&gt;" style="verticalAlign=top;align=left;overflow=fill;html=1;rounded=0;shadow=0;comic=0;labelBackgroundColor=none;strokeWidth=1;fontFamily=Verdana;fontSize=12;points=[[0,0,0,0,0],[0,0.32,0,0,0],[0,0.6,0,0,0],[0,0.75,0,0,0],[0,1,0,0,0],[0.25,0,0,0,0],[0.25,1,0,0,0],[0.5,0,0,0,0],[0.5,1,0,0,0],[0.75,0,0,0,0],[0.75,1,0,0,0],[1,0,0,0,0],[1,0.29,0,0,0],[1,0.6,0,0,0],[1,0.75,0,0,0],[1,1,0,0,0]];fillColor=#5D7F99;strokeColor=#D0CEE2;fontColor=#1A1A1A;" parent="1" vertex="1">
          <mxGeometry x="510" y="536" width="180" height="90" as="geometry" />
        </mxCell>
        <mxCell id="3CN4i4FmLzeHz4VsIxxE-6" value="&lt;div style=&quot;box-sizing: border-box ; width: 100% ; background: #e4e4e4 ; padding: 2px&quot;&gt;tbl_emergencyContacts&lt;/div&gt;&lt;table style=&quot;width: 100% ; font-size: 1em&quot; cellpadding=&quot;2&quot; cellspacing=&quot;0&quot;&gt;&lt;tbody&gt;&lt;tr&gt;&lt;td&gt;PK&lt;span style=&quot;white-space: pre;&quot;&gt; &lt;/span&gt;emergency_contact_id&lt;br&gt;FK&lt;span style=&quot;white-space: pre;&quot;&gt; &lt;/span&gt;name&lt;br&gt;FK&lt;span style=&quot;white-space: pre;&quot;&gt; &lt;/span&gt;contactNumber_id&lt;br&gt;FK&lt;span style=&quot;white-space: pre;&quot;&gt; &lt;/span&gt;member_id&lt;br&gt;FK&lt;span style=&quot;white-space: pre;&quot;&gt; &lt;/span&gt;created_by&lt;br&gt;&lt;span style=&quot;white-space: pre;&quot;&gt; &lt;/span&gt;created_on&lt;br&gt;&lt;/td&gt;&lt;td&gt;&lt;/td&gt;&lt;/tr&gt;&lt;/tbody&gt;&lt;/table&gt;" style="verticalAlign=top;align=left;overflow=fill;html=1;rounded=0;shadow=0;comic=0;labelBackgroundColor=none;strokeWidth=1;fontFamily=Verdana;fontSize=12;points=[[0,0,0,0,0],[0,0.2,0,0,0],[0,0.34,0,0,0],[0,0.45,0,0,0],[0,0.58,0,0,0],[0,0.7,0,0,0],[0,1,0,0,0],[0.25,0,0,0,0],[0.25,1,0,0,0],[0.5,0,0,0,0],[0.5,1,0,0,0],[0.75,0,0,0,0],[0.75,1,0,0,0],[1,0,0,0,0],[1,0.2,0,0,0],[1,0.34,0,0,0],[1,0.45,0,0,0],[1,0.58,0,0,0],[1,0.7,0,0,0],[1,1,0,0,0]];fillColor=#5D7F99;strokeColor=#D0CEE2;fontColor=#1A1A1A;" parent="1" vertex="1">
          <mxGeometry x="273" y="370" width="180" height="120" as="geometry" />
        </mxCell>
      </root>
    </mxGraphModel>
  </diagram>
</mxfile>
